<svg xmlns="http://www.w3.org/2000/svg" width="52" height="52" fill="none"><rect width="52" height="52" fill="#F2F2F7" rx="12"/><g fill="#0F172A" stroke="#0F172A" stroke-width=".5" clip-path="url(#a)"><path d="M29.473 21.633c-2.334-3.434-5.451-5.26-7.083-4.141-.18.127-.337.284-.462.464 0 .013-3.78 7.662-3.78 7.662l-2.11 1.43a2.98 2.98 0 0 0-.79 4.14l.094.14a2.985 2.985 0 0 0 4.123.79l3.389 4.993c.498.615 1.456 1.227 2.637.507a1.784 1.784 0 0 0 .791-1.214 1.89 1.89 0 0 0-.293-1.424l-2.985-4.404s7.057-.562 7.084-.573c.22-.046.43-.135.614-.263.84-.57 1.14-1.765.85-3.365-.261-1.475-1.003-3.144-2.079-4.742ZM16.11 30.808l-.095-.14a2.055 2.055 0 0 1 .549-2.856l1.822-1.24 2.405 3.542-1.822 1.24a2.056 2.056 0 0 1-2.86-.546Zm9.12 4.692a.976.976 0 0 1-1.62 1.089l-3.378-4.977 1.358-.923.359-.029 3.28 4.84Zm-3.566-5.744-2.621-3.861 2.5-5.098c.242 1.432.952 3.133 2.086 4.802 1.134 1.67 2.453 2.957 3.692 3.71l-5.657.447Zm7.78-.615c-1.26-.082-3.312-1.503-5.05-4.064-1.738-2.56-2.303-4.985-1.915-6.19a1.124 1.124 0 0 1 1.055-.791c1.25 0 3.379 1.43 5.167 4.064 1.007 1.482 1.74 3.033 1.94 4.389.394 2.592-1.197 2.592-1.197 2.592Z"/><path d="M26.177 21.73a2.476 2.476 0 0 0-1.878.388.465.465 0 0 0 .18.837.462.462 0 0 0 .347-.075 1.582 1.582 0 1 1 1.778 2.619.461.461 0 0 0 .264.841.45.45 0 0 0 .263-.079 2.503 2.503 0 0 0-.936-4.53h-.018ZM30.043 18.423h.045a.461.461 0 0 0 .459-.414l.356-3.46a.46.46 0 1 0-.918-.095l-.353 3.462a.462.462 0 0 0 .411.507ZM36.009 17.71a.464.464 0 0 0-.641-.131l-3.215 2.11a.461.461 0 0 0 .264.846.47.47 0 0 0 .263-.073l3.215-2.11a.462.462 0 0 0 .114-.641ZM36.992 23.344l-3.74-.672a.462.462 0 0 0-.163.91l3.737.672h.082a.46.46 0 0 0 .082-.918l.002.008Z"/></g><defs><clipPath id="a"><path fill="#fff" d="M14 14h24v24H14z"/></clipPath></defs></svg>