<svg xmlns="http://www.w3.org/2000/svg" width="52" height="52" fill="none"><rect width="52" height="52" fill="#F2F2F7" rx="12"/><path fill="#0F172A" d="M25.9 25.16a3.706 3.706 0 1 0 0-7.412 3.706 3.706 0 0 0 0 7.413Zm0-5.91a2.205 2.205 0 1 1 0 4.411 2.205 2.205 0 0 1 0-4.411ZM18.9 27.339a2.85 2.85 0 1 0 0-5.701 2.85 2.85 0 0 0 0 5.7Zm0-4.2a1.35 1.35 0 1 1 0 2.7 1.35 1.35 0 0 1 0-2.7ZM32.9 27.339a2.85 2.85 0 1 0 0-5.701 2.85 2.85 0 0 0 0 5.7Zm0-4.2a1.35 1.35 0 1 1 0 2.7 1.35 1.35 0 0 1 0-2.7ZM33 28.843a3.952 3.952 0 0 0-1.88.49A6.177 6.177 0 0 0 26 26.455a6.18 6.18 0 0 0-5.12 2.878 3.952 3.952 0 0 0-1.88-.49 4.473 4.473 0 0 0-4.25 4.657.75.75 0 1 0 1.5 0A2.978 2.978 0 0 1 19 30.343c.415.003.822.111 1.183.314a7.563 7.563 0 0 0-.533 2.8.75.75 0 1 0 1.5 0c0-3.034 2.175-5.502 4.85-5.502s4.85 2.468 4.85 5.501a.75.75 0 1 0 1.5 0 7.565 7.565 0 0 0-.533-2.799A2.455 2.455 0 0 1 33 30.343a2.978 2.978 0 0 1 2.75 3.157.75.75 0 1 0 1.5 0A4.473 4.473 0 0 0 33 28.843Z"/></svg>