<svg xmlns="http://www.w3.org/2000/svg" width="52" height="52" fill="none"><rect width="52" height="52" fill="#F2F2F7" rx="12"/><g fill="#0F172A" clip-path="url(#a)"><path d="m23.542 30.172 3.314-9.943a.703.703 0 0 0-1.334-.445l-3.314 9.944a.703.703 0 0 0 1.334.444ZM28.51 27.088c1.162 0 2.109-.947 2.109-2.11 0-1.163-.947-2.11-2.11-2.11-1.163 0-2.109.947-2.109 2.11 0 1.163.946 2.11 2.11 2.11Zm0-2.813a.704.704 0 1 1-.002 1.408.704.704 0 0 1 .001-1.408ZM20.554 22.869c-1.163 0-2.109.946-2.109 2.11 0 1.162.946 2.109 2.11 2.109 1.163 0 2.109-.947 2.109-2.11 0-1.163-.947-2.11-2.11-2.11Zm0 2.812a.704.704 0 1 1 .002-1.407.704.704 0 0 1-.002 1.407Z"/><path d="m37.86 22.719-2.452-3.27.095-.669a.703.703 0 0 0-.199-.596l-1.491-1.492 1.491-1.492a.703.703 0 0 0-.994-.994l-1.491 1.492-1.492-1.492a.703.703 0 0 0-.597-.199l-6.96.995a.703.703 0 0 0-.398.198l-8.618 8.618a2.58 2.58 0 0 0 0 3.646l7.292 7.293c.15.149.313.275.486.38v.285A2.581 2.581 0 0 0 25.11 38h10.312A2.581 2.581 0 0 0 38 35.422V23.141c0-.152-.05-.3-.14-.422ZM15.749 26.47a1.173 1.173 0 0 1 0-1.657L24.2 16.36l6.38-.912 1.243 1.243-.994.994-.497-.497a.703.703 0 0 0-.995.995l1.989 1.988a.701.701 0 0 0 .994 0 .703.703 0 0 0 0-.994l-.497-.497.994-.995 1.244 1.244-.912 6.38-8.452 8.452a1.164 1.164 0 0 1-.829.343c-.313 0-.607-.122-.828-.343l-7.293-7.292Zm20.845 8.952c0 .646-.526 1.172-1.172 1.172H25.11c-.617 0-1.124-.48-1.169-1.085a2.568 2.568 0 0 0 1.751-.752l8.618-8.618a.703.703 0 0 0 .199-.398l.617-4.322 1.468 1.956v12.047Z"/></g><defs><clipPath id="a"><path fill="#fff" d="M14 14h24v24H14z"/></clipPath></defs></svg>