<svg xmlns="http://www.w3.org/2000/svg" width="52" height="52" fill="none"><rect width="52" height="52" fill="#F2F2F7" rx="12"/><g clip-path="url(#a)"><path fill="#0F172A" d="M36.594 19.672v-1.406h-8.606a2.12 2.12 0 0 0-1.285-1.286V14h-1.406v2.98a2.12 2.12 0 0 0-1.285 1.286h-8.606v1.406h1.758L14 27.266v.14a3.52 3.52 0 0 0 3.516 3.516h1.406a3.52 3.52 0 0 0 3.515-3.516v-.14l-3.164-7.594h4.739a2.12 2.12 0 0 0 1.285 1.285V31.04a3.525 3.525 0 0 0-2.753 2.802 3.52 3.52 0 0 0-2.872 3.456V38h12.656v-.703a3.52 3.52 0 0 0-2.872-3.456 3.525 3.525 0 0 0-2.753-2.802V20.957a2.12 2.12 0 0 0 1.285-1.285h4.739l-3.164 7.594v.14a3.52 3.52 0 0 0 3.515 3.516h1.406A3.52 3.52 0 0 0 38 27.406v-.14l-3.164-7.594h1.758Zm-18.375 1.125 2.46 5.906h-4.921l2.46-5.906Zm.703 8.719h-1.406a2.112 2.112 0 0 1-1.989-1.407h5.383a2.112 2.112 0 0 1-1.988 1.407Zm14.86-8.72 2.46 5.907H31.32l2.461-5.906Zm.702 8.72h-1.406a2.112 2.112 0 0 1-1.988-1.407h5.383a2.112 2.112 0 0 1-1.989 1.407Zm-3.683 7.078H21.2a2.113 2.113 0 0 1 1.988-1.407h5.625c.917 0 1.7.588 1.99 1.407Zm-2.813-2.813h-3.976A2.113 2.113 0 0 1 26 32.375c.917 0 1.698.588 1.988 1.406ZM26 19.671a.704.704 0 1 1 .002-1.407.704.704 0 0 1-.002 1.408Z"/></g><defs><clipPath id="a"><path fill="#fff" d="M14 14h24v24H14z"/></clipPath></defs></svg>