<svg xmlns="http://www.w3.org/2000/svg" width="16" height="16" fill="none"><path fill="#0F172A" d="M11.133 13.153H4.867c-.494 0-.994-.353-1.16-.813L.947 4.613c-.34-.973-.094-1.42.173-1.62.267-.2.767-.32 1.607.28l2.6 1.86c.08.047.153.067.206.054.06-.02.107-.074.14-.167l1.174-3.127C7.2.96 7.72.82 8 .82s.8.14 1.153 1.073l1.174 3.127c.033.087.08.147.14.167.06.02.133 0 .206-.06l2.44-1.74c.894-.64 1.414-.514 1.7-.307.28.213.54.687.174 1.72l-2.694 7.54c-.166.46-.666.813-1.16.813Zm-9.346-9.28c.013.094.04.227.106.4L4.653 12c.027.067.147.153.214.153h6.266c.074 0 .194-.086.214-.153l2.693-7.533c.093-.254.12-.427.127-.527-.1.033-.254.107-.474.267l-2.44 1.74c-.333.233-.726.306-1.08.2-.353-.107-.64-.387-.786-.767L8.213 2.253a1.278 1.278 0 0 0-.213-.4 1.3 1.3 0 0 0-.213.394L6.613 5.373c-.14.38-.426.66-.786.767a1.249 1.249 0 0 1-1.08-.2l-2.6-1.86a1.84 1.84 0 0 0-.36-.207ZM11.667 15.167H4.333a.504.504 0 0 1-.5-.5c0-.274.227-.5.5-.5h7.334c.273 0 .5.226.5.5 0 .273-.227.5-.5.5Z"/><path fill="#0F172A" d="M9.667 9.833H6.333a.504.504 0 0 1-.5-.5c0-.273.227-.5.5-.5h3.334c.273 0 .5.227.5.5 0 .274-.227.5-.5.5Z"/></svg>