<svg xmlns="http://www.w3.org/2000/svg" width="20" height="20" fill="none"><path stroke="#475569" stroke-miterlimit="10" stroke-width="1.5" d="M18.308 15.275c0 .3-.066.608-.208.908a3.44 3.44 0 0 1-.567.85c-.408.45-.858.775-1.366.983-.5.209-1.042.317-1.625.317-.85 0-1.759-.2-2.717-.608a14.632 14.632 0 0 1-2.867-1.65 23.962 23.962 0 0 1-2.733-2.333A23.682 23.682 0 0 1 3.9 11.015c-.683-.95-1.233-1.9-1.633-2.841-.4-.95-.6-1.859-.6-2.725 0-.567.1-1.109.3-1.609.2-.508.516-.975.958-1.391.533-.525 1.117-.784 1.733-.784.234 0 .467.05.675.15.217.1.409.25.559.467l1.933 2.725c.15.208.258.4.333.583.075.175.117.35.117.509 0 .2-.058.4-.175.591a2.834 2.834 0 0 1-.467.592L7 7.941a.446.446 0 0 0-.133.334c0 .066.008.125.025.191.025.067.05.117.066.167.15.275.409.634.775 1.067.375.433.775.875 1.209 1.317.45.441.883.85 1.325 1.225.433.366.791.616 1.075.766.041.017.091.042.15.067a.576.576 0 0 0 .208.033c.142 0 .25-.05.342-.142l.633-.624c.208-.209.408-.367.6-.467a1.11 1.11 0 0 1 .592-.175c.158 0 .325.033.508.108s.375.184.583.325l2.759 1.959c.216.15.366.324.458.533.083.208.133.416.133.65Z"/><path stroke="#475569" stroke-linecap="round" stroke-linejoin="round" stroke-width="1.5" d="M15.417 7.5c0-.5-.392-1.267-.975-1.892-.534-.575-1.242-1.025-1.942-1.025M18.333 7.5A5.829 5.829 0 0 0 12.5 1.667"/></svg>