<svg xmlns="http://www.w3.org/2000/svg" width="1440" height="846" fill="none"><g clip-path="url(#a)" opacity=".4"><mask id="c" width="1440" height="1440" x="0" y="0" maskUnits="userSpaceOnUse" style="mask-type:alpha"><path fill="url(#b)" d="M0 0h1440v1440H0z"/></mask><g mask="url(#c)"><g clip-path="url(#d)"><mask id="e" fill="#fff"><path d="M-48 0h96v96h-96V0Z"/></mask><path fill="#D0D5DD" d="M48 96v1h1v-1h-1Zm0-96h-1v96h2V0h-1Zm0 96v-1h-96v2h96v-1Z" mask="url(#e)"/><mask id="f" fill="#fff"><path d="M48 0h96v96H48V0Z"/></mask><path fill="#D0D5DD" d="M144 96v1h1v-1h-1Zm0-96h-1v96h2V0h-1Zm0 96v-1H48v2h96v-1Z" mask="url(#f)"/><mask id="g" fill="#fff"><path d="M144 0h96v96h-96V0Z"/></mask><path fill="#D0D5DD" d="M240 96v1h1v-1h-1Zm0-96h-1v96h2V0h-1Zm0 96v-1h-96v2h96v-1Z" mask="url(#g)"/><mask id="h" fill="#fff"><path d="M240 0h96v96h-96V0Z"/></mask><path fill="#D0D5DD" d="M336 96v1h1v-1h-1Zm0-96h-1v96h2V0h-1Zm0 96v-1h-96v2h96v-1Z" mask="url(#h)"/><mask id="i" fill="#fff"><path d="M336 0h96v96h-96V0Z"/></mask><path fill="#D0D5DD" d="M432 96v1h1v-1h-1Zm0-96h-1v96h2V0h-1Zm0 96v-1h-96v2h96v-1Z" mask="url(#i)"/><mask id="j" fill="#fff"><path d="M432 0h96v96h-96V0Z"/></mask><path fill="#D0D5DD" d="M528 96v1h1v-1h-1Zm0-96h-1v96h2V0h-1Zm0 96v-1h-96v2h96v-1Z" mask="url(#j)"/><mask id="k" fill="#fff"><path d="M528 0h96v96h-96V0Z"/></mask><path fill="#D0D5DD" d="M624 96v1h1v-1h-1Zm0-96h-1v96h2V0h-1Zm0 96v-1h-96v2h96v-1Z" mask="url(#k)"/><mask id="l" fill="#fff"><path d="M624 0h96v96h-96V0Z"/></mask><path fill="#D0D5DD" d="M720 96v1h1v-1h-1Zm0-96h-1v96h2V0h-1Zm0 96v-1h-96v2h96v-1Z" mask="url(#l)"/><mask id="m" fill="#fff"><path d="M720 0h96v96h-96V0Z"/></mask><path fill="#D0D5DD" d="M816 96v1h1v-1h-1Zm0-96h-1v96h2V0h-1Zm0 96v-1h-96v2h96v-1Z" mask="url(#m)"/><mask id="n" fill="#fff"><path d="M816 0h96v96h-96V0Z"/></mask><path fill="#D0D5DD" d="M912 96v1h1v-1h-1Zm0-96h-1v96h2V0h-1Zm0 96v-1h-96v2h96v-1Z" mask="url(#n)"/><mask id="o" fill="#fff"><path d="M912 0h96v96h-96V0Z"/></mask><path fill="#D0D5DD" d="M1008 96v1h1v-1h-1Zm0-96h-1v96h2V0h-1Zm0 96v-1h-96v2h96v-1Z" mask="url(#o)"/><mask id="p" fill="#fff"><path d="M1008 0h96v96h-96V0Z"/></mask><path fill="#D0D5DD" d="M1104 96v1h1v-1h-1Zm0-96h-1v96h2V0h-1Zm0 96v-1h-96v2h96v-1Z" mask="url(#p)"/><mask id="q" fill="#fff"><path d="M1104 0h96v96h-96V0Z"/></mask><path fill="#D0D5DD" d="M1200 96v1h1v-1h-1Zm0-96h-1v96h2V0h-1Zm0 96v-1h-96v2h96v-1Z" mask="url(#q)"/><mask id="r" fill="#fff"><path d="M1200 0h96v96h-96V0Z"/></mask><path fill="#D0D5DD" d="M1296 96v1h1v-1h-1Zm0-96h-1v96h2V0h-1Zm0 96v-1h-96v2h96v-1Z" mask="url(#r)"/><mask id="s" fill="#fff"><path d="M1296 0h96v96h-96V0Z"/></mask><path fill="#D0D5DD" d="M1392 96v1h1v-1h-1Zm0-96h-1v96h2V0h-1Zm0 96v-1h-96v2h96v-1Z" mask="url(#s)"/><mask id="t" fill="#fff"><path d="M1392 0h96v96h-96V0Z"/></mask><path fill="#D0D5DD" d="M1488 96v1h1v-1h-1Zm0-96h-1v96h2V0h-1Zm0 96v-1h-96v2h96v-1Z" mask="url(#t)"/><mask id="u" fill="#fff"><path d="M-48 96h96v96h-96V96Z"/></mask><path fill="#D0D5DD" d="M48 192v1h1v-1h-1Zm0-96h-1v96h2V96h-1Zm0 96v-1h-96v2h96v-1Z" mask="url(#u)"/><mask id="v" fill="#fff"><path d="M48 96h96v96H48V96Z"/></mask><path fill="#D0D5DD" d="M144 192v1h1v-1h-1Zm0-96h-1v96h2V96h-1Zm0 96v-1H48v2h96v-1Z" mask="url(#v)"/><mask id="w" fill="#fff"><path d="M144 96h96v96h-96V96Z"/></mask><path fill="#D0D5DD" d="M240 192v1h1v-1h-1Zm0-96h-1v96h2V96h-1Zm0 96v-1h-96v2h96v-1Z" mask="url(#w)"/><mask id="x" fill="#fff"><path d="M240 96h96v96h-96V96Z"/></mask><path fill="#F2F4F7" d="M240 96h96v96h-96V96Z"/><path fill="#D0D5DD" d="M336 192v1h1v-1h-1Zm0-96h-1v96h2V96h-1Zm0 96v-1h-96v2h96v-1Z" mask="url(#x)"/><mask id="y" fill="#fff"><path d="M336 96h96v96h-96V96Z"/></mask><path fill="#D0D5DD" d="M432 192v1h1v-1h-1Zm0-96h-1v96h2V96h-1Zm0 96v-1h-96v2h96v-1Z" mask="url(#y)"/><mask id="z" fill="#fff"><path d="M432 96h96v96h-96V96Z"/></mask><path fill="#D0D5DD" d="M528 192v1h1v-1h-1Zm0-96h-1v96h2V96h-1Zm0 96v-1h-96v2h96v-1Z" mask="url(#z)"/><mask id="A" fill="#fff"><path d="M528 96h96v96h-96V96Z"/></mask><path fill="#D0D5DD" d="M624 192v1h1v-1h-1Zm0-96h-1v96h2V96h-1Zm0 96v-1h-96v2h96v-1Z" mask="url(#A)"/><mask id="B" fill="#fff"><path d="M624 96h96v96h-96V96Z"/></mask><path fill="#D0D5DD" d="M720 192v1h1v-1h-1Zm0-96h-1v96h2V96h-1Zm0 96v-1h-96v2h96v-1Z" mask="url(#B)"/><mask id="C" fill="#fff"><path d="M720 96h96v96h-96V96Z"/></mask><path fill="#D0D5DD" d="M816 192v1h1v-1h-1Zm0-96h-1v96h2V96h-1Zm0 96v-1h-96v2h96v-1Z" mask="url(#C)"/><mask id="D" fill="#fff"><path d="M816 96h96v96h-96V96Z"/></mask><path fill="#D0D5DD" d="M912 192v1h1v-1h-1Zm0-96h-1v96h2V96h-1Zm0 96v-1h-96v2h96v-1Z" mask="url(#D)"/><mask id="E" fill="#fff"><path d="M912 96h96v96h-96V96Z"/></mask><path fill="#D0D5DD" d="M1008 192v1h1v-1h-1Zm0-96h-1v96h2V96h-1Zm0 96v-1h-96v2h96v-1Z" mask="url(#E)"/><mask id="F" fill="#fff"><path d="M1008 96h96v96h-96V96Z"/></mask><path fill="#D0D5DD" d="M1104 192v1h1v-1h-1Zm0-96h-1v96h2V96h-1Zm0 96v-1h-96v2h96v-1Z" mask="url(#F)"/><mask id="G" fill="#fff"><path d="M1104 96h96v96h-96V96Z"/></mask><path fill="#F2F4F7" d="M1104 96h96v96h-96V96Z"/><path fill="#D0D5DD" d="M1200 192v1h1v-1h-1Zm0-96h-1v96h2V96h-1Zm0 96v-1h-96v2h96v-1Z" mask="url(#G)"/><mask id="H" fill="#fff"><path d="M1200 96h96v96h-96V96Z"/></mask><path fill="#D0D5DD" d="M1296 192v1h1v-1h-1Zm0-96h-1v96h2V96h-1Zm0 96v-1h-96v2h96v-1Z" mask="url(#H)"/><mask id="I" fill="#fff"><path d="M1296 96h96v96h-96V96Z"/></mask><path fill="#D0D5DD" d="M1392 192v1h1v-1h-1Zm0-96h-1v96h2V96h-1Zm0 96v-1h-96v2h96v-1Z" mask="url(#I)"/><mask id="J" fill="#fff"><path d="M1392 96h96v96h-96V96Z"/></mask><path fill="#D0D5DD" d="M1488 192v1h1v-1h-1Zm0-96h-1v96h2V96h-1Zm0 96v-1h-96v2h96v-1Z" mask="url(#J)"/><mask id="K" fill="#fff"><path d="M-48 192h96v96h-96v-96Z"/></mask><path fill="#D0D5DD" d="M48 288v1h1v-1h-1Zm0-96h-1v96h2v-96h-1Zm0 96v-1h-96v2h96v-1Z" mask="url(#K)"/><mask id="L" fill="#fff"><path d="M48 192h96v96H48v-96Z"/></mask><path fill="#D0D5DD" d="M144 288v1h1v-1h-1Zm0-96h-1v96h2v-96h-1Zm0 96v-1H48v2h96v-1Z" mask="url(#L)"/><mask id="M" fill="#fff"><path d="M144 192h96v96h-96v-96Z"/></mask><path fill="#D0D5DD" d="M240 288v1h1v-1h-1Zm0-96h-1v96h2v-96h-1Zm0 96v-1h-96v2h96v-1Z" mask="url(#M)"/><mask id="N" fill="#fff"><path d="M240 192h96v96h-96v-96Z"/></mask><path fill="#D0D5DD" d="M336 288v1h1v-1h-1Zm0-96h-1v96h2v-96h-1Zm0 96v-1h-96v2h96v-1Z" mask="url(#N)"/><mask id="O" fill="#fff"><path d="M336 192h96v96h-96v-96Z"/></mask><path fill="#D0D5DD" d="M432 288v1h1v-1h-1Zm0-96h-1v96h2v-96h-1Zm0 96v-1h-96v2h96v-1Z" mask="url(#O)"/><mask id="P" fill="#fff"><path d="M432 192h96v96h-96v-96Z"/></mask><path fill="#F2F4F7" d="M432 192h96v96h-96v-96Z"/><path fill="#D0D5DD" d="M528 288v1h1v-1h-1Zm0-96h-1v96h2v-96h-1Zm0 96v-1h-96v2h96v-1Z" mask="url(#P)"/><mask id="Q" fill="#fff"><path d="M528 192h96v96h-96v-96Z"/></mask><path fill="#D0D5DD" d="M624 288v1h1v-1h-1Zm0-96h-1v96h2v-96h-1Zm0 96v-1h-96v2h96v-1Z" mask="url(#Q)"/><mask id="R" fill="#fff"><path d="M624 192h96v96h-96v-96Z"/></mask><path fill="#D0D5DD" d="M720 288v1h1v-1h-1Zm0-96h-1v96h2v-96h-1Zm0 96v-1h-96v2h96v-1Z" mask="url(#R)"/><mask id="S" fill="#fff"><path d="M720 192h96v96h-96v-96Z"/></mask><path fill="#D0D5DD" d="M816 288v1h1v-1h-1Zm0-96h-1v96h2v-96h-1Zm0 96v-1h-96v2h96v-1Z" mask="url(#S)"/><mask id="T" fill="#fff"><path d="M816 192h96v96h-96v-96Z"/></mask><path fill="#F2F4F7" d="M816 192h96v96h-96v-96Z"/><path fill="#D0D5DD" d="M912 288v1h1v-1h-1Zm0-96h-1v96h2v-96h-1Zm0 96v-1h-96v2h96v-1Z" mask="url(#T)"/><mask id="U" fill="#fff"><path d="M912 192h96v96h-96v-96Z"/></mask><path fill="#D0D5DD" d="M1008 288v1h1v-1h-1Zm0-96h-1v96h2v-96h-1Zm0 96v-1h-96v2h96v-1Z" mask="url(#U)"/><mask id="V" fill="#fff"><path d="M1008 192h96v96h-96v-96Z"/></mask><path fill="#D0D5DD" d="M1104 288v1h1v-1h-1Zm0-96h-1v96h2v-96h-1Zm0 96v-1h-96v2h96v-1Z" mask="url(#V)"/><mask id="W" fill="#fff"><path d="M1104 192h96v96h-96v-96Z"/></mask><path fill="#D0D5DD" d="M1200 288v1h1v-1h-1Zm0-96h-1v96h2v-96h-1Zm0 96v-1h-96v2h96v-1Z" mask="url(#W)"/><mask id="X" fill="#fff"><path d="M1200 192h96v96h-96v-96Z"/></mask><path fill="#D0D5DD" d="M1296 288v1h1v-1h-1Zm0-96h-1v96h2v-96h-1Zm0 96v-1h-96v2h96v-1Z" mask="url(#X)"/><mask id="Y" fill="#fff"><path d="M1296 192h96v96h-96v-96Z"/></mask><path fill="#D0D5DD" d="M1392 288v1h1v-1h-1Zm0-96h-1v96h2v-96h-1Zm0 96v-1h-96v2h96v-1Z" mask="url(#Y)"/><mask id="Z" fill="#fff"><path d="M1392 192h96v96h-96v-96Z"/></mask><path fill="#D0D5DD" d="M1488 288v1h1v-1h-1Zm0-96h-1v96h2v-96h-1Zm0 96v-1h-96v2h96v-1Z" mask="url(#Z)"/><mask id="aa" fill="#fff"><path d="M-48 288h96v96h-96v-96Z"/></mask><path fill="#F2F4F7" d="M-48 288h96v96h-96v-96Z"/><path fill="#D0D5DD" d="M48 384v1h1v-1h-1Zm0-96h-1v96h2v-96h-1Zm0 96v-1h-96v2h96v-1Z" mask="url(#aa)"/><mask id="ab" fill="#fff"><path d="M48 288h96v96H48v-96Z"/></mask><path fill="#D0D5DD" d="M144 384v1h1v-1h-1Zm0-96h-1v96h2v-96h-1Zm0 96v-1H48v2h96v-1Z" mask="url(#ab)"/><mask id="ac" fill="#fff"><path d="M144 288h96v96h-96v-96Z"/></mask><path fill="#D0D5DD" d="M240 384v1h1v-1h-1Zm0-96h-1v96h2v-96h-1Zm0 96v-1h-96v2h96v-1Z" mask="url(#ac)"/><mask id="ad" fill="#fff"><path d="M240 288h96v96h-96v-96Z"/></mask><path fill="#D0D5DD" d="M336 384v1h1v-1h-1Zm0-96h-1v96h2v-96h-1Zm0 96v-1h-96v2h96v-1Z" mask="url(#ad)"/><mask id="ae" fill="#fff"><path d="M336 288h96v96h-96v-96Z"/></mask><path fill="#D0D5DD" d="M432 384v1h1v-1h-1Zm0-96h-1v96h2v-96h-1Zm0 96v-1h-96v2h96v-1Z" mask="url(#ae)"/><mask id="af" fill="#fff"><path d="M432 288h96v96h-96v-96Z"/></mask><path fill="#D0D5DD" d="M528 384v1h1v-1h-1Zm0-96h-1v96h2v-96h-1Zm0 96v-1h-96v2h96v-1Z" mask="url(#af)"/><mask id="ag" fill="#fff"><path d="M528 288h96v96h-96v-96Z"/></mask><path fill="#D0D5DD" d="M624 384v1h1v-1h-1Zm0-96h-1v96h2v-96h-1Zm0 96v-1h-96v2h96v-1Z" mask="url(#ag)"/><mask id="ah" fill="#fff"><path d="M624 288h96v96h-96v-96Z"/></mask><path fill="#D0D5DD" d="M720 384v1h1v-1h-1Zm0-96h-1v96h2v-96h-1Zm0 96v-1h-96v2h96v-1Z" mask="url(#ah)"/><mask id="ai" fill="#fff"><path d="M720 288h96v96h-96v-96Z"/></mask><path fill="#D0D5DD" d="M816 384v1h1v-1h-1Zm0-96h-1v96h2v-96h-1Zm0 96v-1h-96v2h96v-1Z" mask="url(#ai)"/><mask id="aj" fill="#fff"><path d="M816 288h96v96h-96v-96Z"/></mask><path fill="#D0D5DD" d="M912 384v1h1v-1h-1Zm0-96h-1v96h2v-96h-1Zm0 96v-1h-96v2h96v-1Z" mask="url(#aj)"/><mask id="ak" fill="#fff"><path d="M912 288h96v96h-96v-96Z"/></mask><path fill="#D0D5DD" d="M1008 384v1h1v-1h-1Zm0-96h-1v96h2v-96h-1Zm0 96v-1h-96v2h96v-1Z" mask="url(#ak)"/><mask id="al" fill="#fff"><path d="M1008 288h96v96h-96v-96Z"/></mask><path fill="#D0D5DD" d="M1104 384v1h1v-1h-1Zm0-96h-1v96h2v-96h-1Zm0 96v-1h-96v2h96v-1Z" mask="url(#al)"/><mask id="am" fill="#fff"><path d="M1104 288h96v96h-96v-96Z"/></mask><path fill="#F2F4F7" d="M1104 288h96v96h-96v-96Z"/><path fill="#D0D5DD" d="M1200 384v1h1v-1h-1Zm0-96h-1v96h2v-96h-1Zm0 96v-1h-96v2h96v-1Z" mask="url(#am)"/><mask id="an" fill="#fff"><path d="M1200 288h96v96h-96v-96Z"/></mask><path fill="#D0D5DD" d="M1296 384v1h1v-1h-1Zm0-96h-1v96h2v-96h-1Zm0 96v-1h-96v2h96v-1Z" mask="url(#an)"/><mask id="ao" fill="#fff"><path d="M1296 288h96v96h-96v-96Z"/></mask><path fill="#D0D5DD" d="M1392 384v1h1v-1h-1Zm0-96h-1v96h2v-96h-1Zm0 96v-1h-96v2h96v-1Z" mask="url(#ao)"/><mask id="ap" fill="#fff"><path d="M1392 288h96v96h-96v-96Z"/></mask><path fill="#D0D5DD" d="M1488 384v1h1v-1h-1Zm0-96h-1v96h2v-96h-1Zm0 96v-1h-96v2h96v-1Z" mask="url(#ap)"/><mask id="aq" fill="#fff"><path d="M-48 384h96v96h-96v-96Z"/></mask><path fill="#D0D5DD" d="M48 480v1h1v-1h-1Zm0-96h-1v96h2v-96h-1Zm0 96v-1h-96v2h96v-1Z" mask="url(#aq)"/><mask id="ar" fill="#fff"><path d="M48 384h96v96H48v-96Z"/></mask><path fill="#D0D5DD" d="M144 480v1h1v-1h-1Zm0-96h-1v96h2v-96h-1Zm0 96v-1H48v2h96v-1Z" mask="url(#ar)"/><mask id="as" fill="#fff"><path d="M144 384h96v96h-96v-96Z"/></mask><path fill="#D0D5DD" d="M240 480v1h1v-1h-1Zm0-96h-1v96h2v-96h-1Zm0 96v-1h-96v2h96v-1Z" mask="url(#as)"/><mask id="at" fill="#fff"><path d="M240 384h96v96h-96v-96Z"/></mask><path fill="#D0D5DD" d="M336 480v1h1v-1h-1Zm0-96h-1v96h2v-96h-1Zm0 96v-1h-96v2h96v-1Z" mask="url(#at)"/><mask id="au" fill="#fff"><path d="M336 384h96v96h-96v-96Z"/></mask><path fill="#D0D5DD" d="M432 480v1h1v-1h-1Zm0-96h-1v96h2v-96h-1Zm0 96v-1h-96v2h96v-1Z" mask="url(#au)"/><mask id="av" fill="#fff"><path d="M432 384h96v96h-96v-96Z"/></mask><path fill="#D0D5DD" d="M528 480v1h1v-1h-1Zm0-96h-1v96h2v-96h-1Zm0 96v-1h-96v2h96v-1Z" mask="url(#av)"/><mask id="aw" fill="#fff"><path d="M528 384h96v96h-96v-96Z"/></mask><path fill="#F2F4F7" d="M528 384h96v96h-96v-96Z"/><path fill="#D0D5DD" d="M624 480v1h1v-1h-1Zm0-96h-1v96h2v-96h-1Zm0 96v-1h-96v2h96v-1Z" mask="url(#aw)"/><mask id="ax" fill="#fff"><path d="M624 384h96v96h-96v-96Z"/></mask><path fill="#D0D5DD" d="M720 480v1h1v-1h-1Zm0-96h-1v96h2v-96h-1Zm0 96v-1h-96v2h96v-1Z" mask="url(#ax)"/><mask id="ay" fill="#fff"><path d="M720 384h96v96h-96v-96Z"/></mask><path fill="#D0D5DD" d="M816 480v1h1v-1h-1Zm0-96h-1v96h2v-96h-1Zm0 96v-1h-96v2h96v-1Z" mask="url(#ay)"/><mask id="az" fill="#fff"><path d="M816 384h96v96h-96v-96Z"/></mask><path fill="#D0D5DD" d="M912 480v1h1v-1h-1Zm0-96h-1v96h2v-96h-1Zm0 96v-1h-96v2h96v-1Z" mask="url(#az)"/><mask id="aA" fill="#fff"><path d="M912 384h96v96h-96v-96Z"/></mask><path fill="#D0D5DD" d="M1008 480v1h1v-1h-1Zm0-96h-1v96h2v-96h-1Zm0 96v-1h-96v2h96v-1Z" mask="url(#aA)"/><mask id="aB" fill="#fff"><path d="M1008 384h96v96h-96v-96Z"/></mask><path fill="#D0D5DD" d="M1104 480v1h1v-1h-1Zm0-96h-1v96h2v-96h-1Zm0 96v-1h-96v2h96v-1Z" mask="url(#aB)"/><mask id="aC" fill="#fff"><path d="M1104 384h96v96h-96v-96Z"/></mask><path fill="#D0D5DD" d="M1200 480v1h1v-1h-1Zm0-96h-1v96h2v-96h-1Zm0 96v-1h-96v2h96v-1Z" mask="url(#aC)"/><mask id="aD" fill="#fff"><path d="M1200 384h96v96h-96v-96Z"/></mask><path fill="#D0D5DD" d="M1296 480v1h1v-1h-1Zm0-96h-1v96h2v-96h-1Zm0 96v-1h-96v2h96v-1Z" mask="url(#aD)"/><mask id="aE" fill="#fff"><path d="M1296 384h96v96h-96v-96Z"/></mask><path fill="#D0D5DD" d="M1392 480v1h1v-1h-1Zm0-96h-1v96h2v-96h-1Zm0 96v-1h-96v2h96v-1Z" mask="url(#aE)"/><mask id="aF" fill="#fff"><path d="M1392 384h96v96h-96v-96Z"/></mask><path fill="#D0D5DD" d="M1488 480v1h1v-1h-1Zm0-96h-1v96h2v-96h-1Zm0 96v-1h-96v2h96v-1Z" mask="url(#aF)"/><mask id="aG" fill="#fff"><path d="M-48 480h96v96h-96v-96Z"/></mask><path fill="#D0D5DD" d="M48 576v1h1v-1h-1Zm0-96h-1v96h2v-96h-1Zm0 96v-1h-96v2h96v-1Z" mask="url(#aG)"/><mask id="aH" fill="#fff"><path d="M48 480h96v96H48v-96Z"/></mask><path fill="#D0D5DD" d="M144 576v1h1v-1h-1Zm0-96h-1v96h2v-96h-1Zm0 96v-1H48v2h96v-1Z" mask="url(#aH)"/><mask id="aI" fill="#fff"><path d="M144 480h96v96h-96v-96Z"/></mask><path fill="#D0D5DD" d="M240 576v1h1v-1h-1Zm0-96h-1v96h2v-96h-1Zm0 96v-1h-96v2h96v-1Z" mask="url(#aI)"/><mask id="aJ" fill="#fff"><path d="M240 480h96v96h-96v-96Z"/></mask><path fill="#F2F4F7" d="M240 480h96v96h-96v-96Z"/><path fill="#D0D5DD" d="M336 576v1h1v-1h-1Zm0-96h-1v96h2v-96h-1Zm0 96v-1h-96v2h96v-1Z" mask="url(#aJ)"/><mask id="aK" fill="#fff"><path d="M336 480h96v96h-96v-96Z"/></mask><path fill="#D0D5DD" d="M432 576v1h1v-1h-1Zm0-96h-1v96h2v-96h-1Zm0 96v-1h-96v2h96v-1Z" mask="url(#aK)"/><mask id="aL" fill="#fff"><path d="M432 480h96v96h-96v-96Z"/></mask><path fill="#D0D5DD" d="M528 576v1h1v-1h-1Zm0-96h-1v96h2v-96h-1Zm0 96v-1h-96v2h96v-1Z" mask="url(#aL)"/><mask id="aM" fill="#fff"><path d="M528 480h96v96h-96v-96Z"/></mask><path fill="#D0D5DD" d="M624 576v1h1v-1h-1Zm0-96h-1v96h2v-96h-1Zm0 96v-1h-96v2h96v-1Z" mask="url(#aM)"/><mask id="aN" fill="#fff"><path d="M624 480h96v96h-96v-96Z"/></mask><path fill="#D0D5DD" d="M720 576v1h1v-1h-1Zm0-96h-1v96h2v-96h-1Zm0 96v-1h-96v2h96v-1Z" mask="url(#aN)"/><mask id="aO" fill="#fff"><path d="M720 480h96v96h-96v-96Z"/></mask><path fill="#D0D5DD" d="M816 576v1h1v-1h-1Zm0-96h-1v96h2v-96h-1Zm0 96v-1h-96v2h96v-1Z" mask="url(#aO)"/><mask id="aP" fill="#fff"><path d="M816 480h96v96h-96v-96Z"/></mask><path fill="#F2F4F7" d="M816 480h96v96h-96v-96Z"/><path fill="#D0D5DD" d="M912 576v1h1v-1h-1Zm0-96h-1v96h2v-96h-1Zm0 96v-1h-96v2h96v-1Z" mask="url(#aP)"/><mask id="aQ" fill="#fff"><path d="M912 480h96v96h-96v-96Z"/></mask><path fill="#D0D5DD" d="M1008 576v1h1v-1h-1Zm0-96h-1v96h2v-96h-1Zm0 96v-1h-96v2h96v-1Z" mask="url(#aQ)"/><mask id="aR" fill="#fff"><path d="M1008 480h96v96h-96v-96Z"/></mask><path fill="#D0D5DD" d="M1104 576v1h1v-1h-1Zm0-96h-1v96h2v-96h-1Zm0 96v-1h-96v2h96v-1Z" mask="url(#aR)"/><mask id="aS" fill="#fff"><path d="M1104 480h96v96h-96v-96Z"/></mask><path fill="#D0D5DD" d="M1200 576v1h1v-1h-1Zm0-96h-1v96h2v-96h-1Zm0 96v-1h-96v2h96v-1Z" mask="url(#aS)"/><mask id="aT" fill="#fff"><path d="M1200 480h96v96h-96v-96Z"/></mask><path fill="#D0D5DD" d="M1296 576v1h1v-1h-1Zm0-96h-1v96h2v-96h-1Zm0 96v-1h-96v2h96v-1Z" mask="url(#aT)"/><mask id="aU" fill="#fff"><path d="M1296 480h96v96h-96v-96Z"/></mask><path fill="#D0D5DD" d="M1392 576v1h1v-1h-1Zm0-96h-1v96h2v-96h-1Zm0 96v-1h-96v2h96v-1Z" mask="url(#aU)"/><mask id="aV" fill="#fff"><path d="M1392 480h96v96h-96v-96Z"/></mask><path fill="#D0D5DD" d="M1488 576v1h1v-1h-1Zm0-96h-1v96h2v-96h-1Zm0 96v-1h-96v2h96v-1Z" mask="url(#aV)"/><mask id="aW" fill="#fff"><path d="M-48 576h96v96h-96v-96Z"/></mask><path fill="#D0D5DD" d="M48 672v1h1v-1h-1Zm0-96h-1v96h2v-96h-1Zm0 96v-1h-96v2h96v-1Z" mask="url(#aW)"/><mask id="aX" fill="#fff"><path d="M48 576h96v96H48v-96Z"/></mask><path fill="#F2F4F7" d="M48 576h96v96H48v-96Z"/><path fill="#D0D5DD" d="M144 672v1h1v-1h-1Zm0-96h-1v96h2v-96h-1Zm0 96v-1H48v2h96v-1Z" mask="url(#aX)"/><mask id="aY" fill="#fff"><path d="M144 576h96v96h-96v-96Z"/></mask><path fill="#D0D5DD" d="M240 672v1h1v-1h-1Zm0-96h-1v96h2v-96h-1Zm0 96v-1h-96v2h96v-1Z" mask="url(#aY)"/><mask id="aZ" fill="#fff"><path d="M240 576h96v96h-96v-96Z"/></mask><path fill="#D0D5DD" d="M336 672v1h1v-1h-1Zm0-96h-1v96h2v-96h-1Zm0 96v-1h-96v2h96v-1Z" mask="url(#aZ)"/><mask id="ba" fill="#fff"><path d="M336 576h96v96h-96v-96Z"/></mask><path fill="#D0D5DD" d="M432 672v1h1v-1h-1Zm0-96h-1v96h2v-96h-1Zm0 96v-1h-96v2h96v-1Z" mask="url(#ba)"/><mask id="bb" fill="#fff"><path d="M432 576h96v96h-96v-96Z"/></mask><path fill="#D0D5DD" d="M528 672v1h1v-1h-1Zm0-96h-1v96h2v-96h-1Zm0 96v-1h-96v2h96v-1Z" mask="url(#bb)"/><mask id="bc" fill="#fff"><path d="M528 576h96v96h-96v-96Z"/></mask><path fill="#D0D5DD" d="M624 672v1h1v-1h-1Zm0-96h-1v96h2v-96h-1Zm0 96v-1h-96v2h96v-1Z" mask="url(#bc)"/><mask id="bd" fill="#fff"><path d="M624 576h96v96h-96v-96Z"/></mask><path fill="#D0D5DD" d="M720 672v1h1v-1h-1Zm0-96h-1v96h2v-96h-1Zm0 96v-1h-96v2h96v-1Z" mask="url(#bd)"/><mask id="be" fill="#fff"><path d="M720 576h96v96h-96v-96Z"/></mask><path fill="#D0D5DD" d="M816 672v1h1v-1h-1Zm0-96h-1v96h2v-96h-1Zm0 96v-1h-96v2h96v-1Z" mask="url(#be)"/><mask id="bf" fill="#fff"><path d="M816 576h96v96h-96v-96Z"/></mask><path fill="#D0D5DD" d="M912 672v1h1v-1h-1Zm0-96h-1v96h2v-96h-1Zm0 96v-1h-96v2h96v-1Z" mask="url(#bf)"/><mask id="bg" fill="#fff"><path d="M912 576h96v96h-96v-96Z"/></mask><path fill="#D0D5DD" d="M1008 672v1h1v-1h-1Zm0-96h-1v96h2v-96h-1Zm0 96v-1h-96v2h96v-1Z" mask="url(#bg)"/><mask id="bh" fill="#fff"><path d="M1008 576h96v96h-96v-96Z"/></mask><path fill="#D0D5DD" d="M1104 672v1h1v-1h-1Zm0-96h-1v96h2v-96h-1Zm0 96v-1h-96v2h96v-1Z" mask="url(#bh)"/><mask id="bi" fill="#fff"><path d="M1104 576h96v96h-96v-96Z"/></mask><path fill="#D0D5DD" d="M1200 672v1h1v-1h-1Zm0-96h-1v96h2v-96h-1Zm0 96v-1h-96v2h96v-1Z" mask="url(#bi)"/><mask id="bj" fill="#fff"><path d="M1200 576h96v96h-96v-96Z"/></mask><path fill="#D0D5DD" d="M1296 672v1h1v-1h-1Zm0-96h-1v96h2v-96h-1Zm0 96v-1h-96v2h96v-1Z" mask="url(#bj)"/><mask id="bk" fill="#fff"><path d="M1296 576h96v96h-96v-96Z"/></mask><path fill="#F2F4F7" d="M1296 576h96v96h-96v-96Z"/><path fill="#D0D5DD" d="M1392 672v1h1v-1h-1Zm0-96h-1v96h2v-96h-1Zm0 96v-1h-96v2h96v-1Z" mask="url(#bk)"/><mask id="bl" fill="#fff"><path d="M1392 576h96v96h-96v-96Z"/></mask><path fill="#D0D5DD" d="M1488 672v1h1v-1h-1Zm0-96h-1v96h2v-96h-1Zm0 96v-1h-96v2h96v-1Z" mask="url(#bl)"/><mask id="bm" fill="#fff"><path d="M-48 672h96v96h-96v-96Z"/></mask><path fill="#D0D5DD" d="M48 768v1h1v-1h-1Zm0-96h-1v96h2v-96h-1Zm0 96v-1h-96v2h96v-1Z" mask="url(#bm)"/><mask id="bn" fill="#fff"><path d="M48 672h96v96H48v-96Z"/></mask><path fill="#D0D5DD" d="M144 768v1h1v-1h-1Zm0-96h-1v96h2v-96h-1Zm0 96v-1H48v2h96v-1Z" mask="url(#bn)"/><mask id="bo" fill="#fff"><path d="M144 672h96v96h-96v-96Z"/></mask><path fill="#D0D5DD" d="M240 768v1h1v-1h-1Zm0-96h-1v96h2v-96h-1Zm0 96v-1h-96v2h96v-1Z" mask="url(#bo)"/><mask id="bp" fill="#fff"><path d="M240 672h96v96h-96v-96Z"/></mask><path fill="#D0D5DD" d="M336 768v1h1v-1h-1Zm0-96h-1v96h2v-96h-1Zm0 96v-1h-96v2h96v-1Z" mask="url(#bp)"/><mask id="bq" fill="#fff"><path d="M336 672h96v96h-96v-96Z"/></mask><path fill="#D0D5DD" d="M432 768v1h1v-1h-1Zm0-96h-1v96h2v-96h-1Zm0 96v-1h-96v2h96v-1Z" mask="url(#bq)"/><mask id="br" fill="#fff"><path d="M432 672h96v96h-96v-96Z"/></mask><path fill="#D0D5DD" d="M528 768v1h1v-1h-1Zm0-96h-1v96h2v-96h-1Zm0 96v-1h-96v2h96v-1Z" mask="url(#br)"/><mask id="bs" fill="#fff"><path d="M528 672h96v96h-96v-96Z"/></mask><path fill="#F2F4F7" d="M528 672h96v96h-96v-96Z"/><path fill="#D0D5DD" d="M624 768v1h1v-1h-1Zm0-96h-1v96h2v-96h-1Zm0 96v-1h-96v2h96v-1Z" mask="url(#bs)"/><mask id="bt" fill="#fff"><path d="M624 672h96v96h-96v-96Z"/></mask><path fill="#D0D5DD" d="M720 768v1h1v-1h-1Zm0-96h-1v96h2v-96h-1Zm0 96v-1h-96v2h96v-1Z" mask="url(#bt)"/><mask id="bu" fill="#fff"><path d="M720 672h96v96h-96v-96Z"/></mask><path fill="#D0D5DD" d="M816 768v1h1v-1h-1Zm0-96h-1v96h2v-96h-1Zm0 96v-1h-96v2h96v-1Z" mask="url(#bu)"/><mask id="bv" fill="#fff"><path d="M816 672h96v96h-96v-96Z"/></mask><path fill="#D0D5DD" d="M912 768v1h1v-1h-1Zm0-96h-1v96h2v-96h-1Zm0 96v-1h-96v2h96v-1Z" mask="url(#bv)"/><mask id="bw" fill="#fff"><path d="M912 672h96v96h-96v-96Z"/></mask><path fill="#D0D5DD" d="M1008 768v1h1v-1h-1Zm0-96h-1v96h2v-96h-1Zm0 96v-1h-96v2h96v-1Z" mask="url(#bw)"/><mask id="bx" fill="#fff"><path d="M1008 672h96v96h-96v-96Z"/></mask><path fill="#D0D5DD" d="M1104 768v1h1v-1h-1Zm0-96h-1v96h2v-96h-1Zm0 96v-1h-96v2h96v-1Z" mask="url(#bx)"/><mask id="by" fill="#fff"><path d="M1104 672h96v96h-96v-96Z"/></mask><path fill="#F2F4F7" d="M1104 672h96v96h-96v-96Z"/><path fill="#D0D5DD" d="M1200 768v1h1v-1h-1Zm0-96h-1v96h2v-96h-1Zm0 96v-1h-96v2h96v-1Z" mask="url(#by)"/><mask id="bz" fill="#fff"><path d="M1200 672h96v96h-96v-96Z"/></mask><path fill="#D0D5DD" d="M1296 768v1h1v-1h-1Zm0-96h-1v96h2v-96h-1Zm0 96v-1h-96v2h96v-1Z" mask="url(#bz)"/><mask id="bA" fill="#fff"><path d="M1296 672h96v96h-96v-96Z"/></mask><path fill="#D0D5DD" d="M1392 768v1h1v-1h-1Zm0-96h-1v96h2v-96h-1Zm0 96v-1h-96v2h96v-1Z" mask="url(#bA)"/><mask id="bB" fill="#fff"><path d="M1392 672h96v96h-96v-96Z"/></mask><path fill="#D0D5DD" d="M1488 768v1h1v-1h-1Zm0-96h-1v96h2v-96h-1Zm0 96v-1h-96v2h96v-1Z" mask="url(#bB)"/><mask id="bC" fill="#fff"><path d="M-48 768h96v96h-96v-96Z"/></mask><path fill="#D0D5DD" d="M48 864v1h1v-1h-1Zm0-96h-1v96h2v-96h-1Zm0 96v-1h-96v2h96v-1Z" mask="url(#bC)"/><mask id="bD" fill="#fff"><path d="M48 768h96v96H48v-96Z"/></mask><path fill="#D0D5DD" d="M144 864v1h1v-1h-1Zm0-96h-1v96h2v-96h-1Zm0 96v-1H48v2h96v-1Z" mask="url(#bD)"/><mask id="bE" fill="#fff"><path d="M144 768h96v96h-96v-96Z"/></mask><path fill="#D0D5DD" d="M240 864v1h1v-1h-1Zm0-96h-1v96h2v-96h-1Zm0 96v-1h-96v2h96v-1Z" mask="url(#bE)"/><mask id="bF" fill="#fff"><path d="M240 768h96v96h-96v-96Z"/></mask><path fill="#F2F4F7" d="M240 768h96v96h-96v-96Z"/><path fill="#D0D5DD" d="M336 864v1h1v-1h-1Zm0-96h-1v96h2v-96h-1Zm0 96v-1h-96v2h96v-1Z" mask="url(#bF)"/><mask id="bG" fill="#fff"><path d="M336 768h96v96h-96v-96Z"/></mask><path fill="#D0D5DD" d="M432 864v1h1v-1h-1Zm0-96h-1v96h2v-96h-1Zm0 96v-1h-96v2h96v-1Z" mask="url(#bG)"/><mask id="bH" fill="#fff"><path d="M432 768h96v96h-96v-96Z"/></mask><path fill="#D0D5DD" d="M528 864v1h1v-1h-1Zm0-96h-1v96h2v-96h-1Zm0 96v-1h-96v2h96v-1Z" mask="url(#bH)"/><mask id="bI" fill="#fff"><path d="M528 768h96v96h-96v-96Z"/></mask><path fill="#D0D5DD" d="M624 864v1h1v-1h-1Zm0-96h-1v96h2v-96h-1Zm0 96v-1h-96v2h96v-1Z" mask="url(#bI)"/><mask id="bJ" fill="#fff"><path d="M624 768h96v96h-96v-96Z"/></mask><path fill="#D0D5DD" d="M720 864v1h1v-1h-1Zm0-96h-1v96h2v-96h-1Zm0 96v-1h-96v2h96v-1Z" mask="url(#bJ)"/><mask id="bK" fill="#fff"><path d="M720 768h96v96h-96v-96Z"/></mask><path fill="#D0D5DD" d="M816 864v1h1v-1h-1Zm0-96h-1v96h2v-96h-1Zm0 96v-1h-96v2h96v-1Z" mask="url(#bK)"/><mask id="bL" fill="#fff"><path d="M816 768h96v96h-96v-96Z"/></mask><path fill="#F2F4F7" d="M816 768h96v96h-96v-96Z"/><path fill="#D0D5DD" d="M912 864v1h1v-1h-1Zm0-96h-1v96h2v-96h-1Zm0 96v-1h-96v2h96v-1Z" mask="url(#bL)"/><mask id="bM" fill="#fff"><path d="M912 768h96v96h-96v-96Z"/></mask><path fill="#D0D5DD" d="M1008 864v1h1v-1h-1Zm0-96h-1v96h2v-96h-1Zm0 96v-1h-96v2h96v-1Z" mask="url(#bM)"/><mask id="bN" fill="#fff"><path d="M1008 768h96v96h-96v-96Z"/></mask><path fill="#D0D5DD" d="M1104 864v1h1v-1h-1Zm0-96h-1v96h2v-96h-1Zm0 96v-1h-96v2h96v-1Z" mask="url(#bN)"/><mask id="bO" fill="#fff"><path d="M1104 768h96v96h-96v-96Z"/></mask><path fill="#D0D5DD" d="M1200 864v1h1v-1h-1Zm0-96h-1v96h2v-96h-1Zm0 96v-1h-96v2h96v-1Z" mask="url(#bO)"/><mask id="bP" fill="#fff"><path d="M1200 768h96v96h-96v-96Z"/></mask><path fill="#D0D5DD" d="M1296 864v1h1v-1h-1Zm0-96h-1v96h2v-96h-1Zm0 96v-1h-96v2h96v-1Z" mask="url(#bP)"/><mask id="bQ" fill="#fff"><path d="M1296 768h96v96h-96v-96Z"/></mask><path fill="#D0D5DD" d="M1392 864v1h1v-1h-1Zm0-96h-1v96h2v-96h-1Zm0 96v-1h-96v2h96v-1Z" mask="url(#bQ)"/><mask id="bR" fill="#fff"><path d="M1392 768h96v96h-96v-96Z"/></mask><path fill="#D0D5DD" d="M1488 864v1h1v-1h-1Zm0-96h-1v96h2v-96h-1Zm0 96v-1h-96v2h96v-1Z" mask="url(#bR)"/></g><path stroke="#D0D5DD" d="M-239.5.5h1919v1439h-1919z"/></g></g><defs><clipPath id="a"><path fill="#fff" d="M0 0h1440v1012H0z"/></clipPath><clipPath id="d"><path fill="#fff" d="M-240 0h1920v1440H-240z"/></clipPath><radialGradient id="b" cx="0" cy="0" r="1" gradientTransform="matrix(0 1440 -751.588 0 720 0)" gradientUnits="userSpaceOnUse"><stop/><stop offset=".953" stop-opacity="0"/></radialGradient></defs></svg>