<svg xmlns="http://www.w3.org/2000/svg" width="16" height="16" fill="none"><path fill="#0F172A" d="M10.667 15.167H5.333c-3.08 0-3.653-1.434-3.8-2.827L1.033 7c-.073-.7-.093-1.733.6-2.507.6-.666 1.594-.986 3.034-.986h6.666c1.447 0 2.44.326 3.034.986.693.774.673 1.807.6 2.514l-.5 5.326c-.147 1.4-.72 2.834-3.8 2.834Zm-6-10.667c-1.127 0-1.9.22-2.294.66-.326.36-.433.913-.346 1.74l.5 5.34c.113 1.053.4 1.927 2.806 1.927h5.334c2.4 0 2.693-.874 2.806-1.934l.5-5.326c.087-.834-.02-1.387-.346-1.747-.394-.44-1.167-.66-2.294-.66H4.667Z"/><path fill="#0F172A" d="M10.667 4.5a.504.504 0 0 1-.5-.5v-.533c0-1.187 0-1.634-1.634-1.634H7.467c-1.634 0-1.634.447-1.634 1.634V4c0 .273-.226.5-.5.5a.504.504 0 0 1-.5-.5v-.533c0-1.174 0-2.634 2.634-2.634h1.066c2.634 0 2.634 1.46 2.634 2.634V4c0 .273-.227.5-.5.5ZM8 11.167c-1.833 0-1.833-1.134-1.833-1.814v-.686c0-.94.226-1.167 1.166-1.167h1.334c.94 0 1.166.227 1.166 1.167v.666c0 .694 0 1.834-1.833 1.834ZM7.167 8.5V9.353c0 .687 0 .814.833.814s.833-.107.833-.82V8.5H7.167Z"/><path fill="#0F172A" d="M9.333 9.847a.502.502 0 0 1-.06-1c1.76-.22 3.447-.887 4.867-1.92a.497.497 0 0 1 .7.113c.16.22.113.533-.113.7a11.576 11.576 0 0 1-5.334 2.107h-.06ZM6.667 9.853h-.06A11.435 11.435 0 0 1 1.46 7.927a.502.502 0 0 1-.133-.694.502.502 0 0 1 .693-.133 10.502 10.502 0 0 0 4.693 1.76.5.5 0 0 1 .44.553.481.481 0 0 1-.486.44Z"/></svg>