<svg xmlns="http://www.w3.org/2000/svg" width="125" height="36" fill="none"><g clip-path="url(#a)"><path stroke="#0C0C0C" stroke-width="3.595" d="M28.076 1.798h17.45c1.27 0 1.975.332 2.256.725l.05.08c.082.148.166.354.233.595l.061.253c.04.195.076.459.095.71l.013.243a2.993 2.993 0 0 0 .036.404v.886c-.001.226.012.424.02.557.01.141.016.233.016.339 0 .636.009 1.247.018 1.845l.018 1.803-.036 5.906v.01c0 .108-.006.194-.015.33-.004.068-.01.15-.014.243l-.007.318v.002c.003.82-.01 1.311-.11 1.957l-.05.288c-.11.598-.353.96-.643 1.162-.257.18-.989.422-1.942.422H28.073c-1.062 0-1.632-.222-1.94-.461-.235-.182-.491-.51-.628-1.209l-.05-.323c-.07-.57-.088-1.232-.09-1.934l.003-.713c0-.234-.013-.438-.022-.585a6.015 6.015 0 0 1-.015-.381c0-.66-.006-1.343-.012-2.008-.007-.669-.013-1.318-.013-1.925s.006-1.256.013-1.925c.006-.665.012-1.348.012-2.008 0-.296.008-.586.017-.91.009-.317.02-.665.02-1.038 0-.808.025-1.508.16-2.102.115-.501.281-.806.477-1l.086-.077h.001c.296-.24 1.099-.48 1.984-.48Z"/><path fill="#0C0C0C" fill-rule="evenodd" d="M114.722.319v22.035c0 .082.025.106.107.106h2.933v-8.006h1.216c.125 0 .132.173.193.41l.129.511 1.859 7.085h3.219c-.016-.198-1.945-6.807-2.133-7.452-.055-.185-.101-.354-.152-.523-.046-.16-.133-.397-.147-.563.372-.086.89-.564 1.129-.865 1.18-1.482.981-4.262.981-6.362 0-.248-.001-.496.001-.744.001-.276-.037-.416-.036-.708.007-2.045-.427-4.148-2.705-4.76-.799-.215-1.73-.27-2.73-.27h-3.755c-.083 0-.107.023-.107.106h-.002Zm4.005 11.478h-.965V2.905c2.017 0 3.225-.197 3.218 2.161 0 .278.037.432.037.672v3.19c0 .245-.037.42-.037.707.005 1.62-.498 2.161-2.253 2.161v.001ZM102.456 22.46h3.111c.037-.44.118-.939.142-1.382l.129-1.395c.034-.241.03-.446.056-.688l.209-2.096h3.254l.256 2.793c.045.425.118.945.138 1.387.019.44.107.95.142 1.381h2.647c.504.002.484.091.418-.378-.217-1.556-.367-3.106-.582-4.667a61.84 61.84 0 0 1-.194-1.58c-.118-1.04-.26-2.098-.387-3.123-.13-1.056-.237-2.071-.383-3.126-.214-1.53-.368-3.121-.578-4.672a39.07 39.07 0 0 1-.192-1.58l-.29-2.336c-.026-.21-.096-.572-.1-.786h-4.971c-.148 0-.103.128-.119.272l-.643 5.209c-.244 1.829-.449 3.752-.693 5.583-.125.942-.217 1.837-.344 2.777-.122.907-.242 1.882-.347 2.81l-.679 5.597Zm5.649-19.555c0 .164.024.52.051.694l.328 4.281c.032.212.045.52.05.73.004.172.028.162.036.318.062 1.257.291 2.675.359 3.896l.142 1.418h-2.683l.47-4.883c.117-1.095.191-2.47.279-3.586l.144-2.16c.004-.156.041-.573.073-.708h.751ZM.002 22.46h3.111c.037-.44.102-.943.14-1.384.072-.846.21-2.012.255-2.795.024-.443.105-.942.142-1.382h3.254c0 .23.037.492.061.683l.475 4.88h2.646c.503.001.482.095.419-.38l-1.164-9.37c-.13-1.052-.236-2.07-.384-3.126-.148-1.055-.24-2.067-.39-3.122-.147-1.056-.253-2.074-.383-3.127L7.797.213H2.826c-.161 0-.115.28-.163.618l-.26 2.081c-.115.937-.212 1.84-.344 2.777-.377 2.686-.669 5.641-1.033 8.366-.304 2.28-.548 4.717-.863 6.974L0 22.461h.002Zm4.97-19.555h.68c0 .464.101.964.107 1.417.003.175.02.513.045.7l.813 9.22H3.935l.276-2.809c.06-.477.065-.917.133-1.392l.128-1.432c.064-1.334.214-2.963.32-4.324l.072-1.097c-.001-.15-.038-.283.109-.283ZM87.651 22.46h2.933c.081 0 .107-.024.107-.106V.319c0-.083-.025-.107-.107-.107H87.65V22.46ZM93.266 22.46h8.046v-2.692h-5.007V.213h-3.04V22.46ZM63.799 9.175l.07 9.39c.026.857.287 1.897.78 2.627.26.384.489.573.88.83.606.397 1.63.61 2.7.65h.742c1.094-.04 2.145-.261 2.752-.651.166-.107.252-.158.4-.278.277-.225.448-.44.645-.743.357-.545.556-1.275.657-2.076.146-1.156.065-3.443.065-4.648h-3.04v3.968c0 1.292-.486 1.95-1.788 1.95-1.965 0-1.797-1.454-1.787-3.119.001-.249-.037-.337-.038-.566l.002-1.843c-.092-1.684-.037-4.175-.037-5.916l.036-2.516c-.002-.292.036-.492.036-.815 0-.279-.01-.574-.001-.851l.056-.794c.203-1.097 1.02-1.387 2.082-1.251.222.029.471.108.646.21.64.375.686 1.074.686 1.871l-.036 3.65h3.04c0-.34.036-.542.036-.887 0-1.49.113-3.34-.282-4.68a4 4 0 0 0-.569-1.209c-.192-.288-.34-.396-.57-.603-.265-.237-.855-.47-1.19-.593-1.036-.383-3.261-.38-4.383.05-.54.207-1.079.501-1.44.947-.045.055-.072.077-.117.132-.66.8-.948 1.913-.958 2.983-.002.196-.037.225-.04.422l-.034 4.36H63.8ZM52.14 5.172c0 1.96-.174 4.26.9 5.84.46.675 1.422 1.15 2.196 1.367.545.153 1.06.28 1.617.417.552.136 1.072.246 1.377.656.606.81.562 2.54.562 3.624 0 1.096.04 2.505-.87 2.93-.528.246-1.59.226-2.093-.102-.287-.186-.422-.403-.538-.741-.192-.559-.18-2.285-.183-3.008l.036-1.276c-.001-.25.037-.367.037-.637h-2.79c-.164 0-.098.186-.11.352l-.07.923c-.035 1.18-.024 3.125.225 4.172.608 2.566 2.371 2.984 4.854 2.984 1.268 0 2.887-.377 3.57-1.387.38-.563.587-1 .731-1.72.26-1.303.205-2.743.205-4.118 0-1.29-.229-2.473-.667-3.343-1.245-2.474-4.885-1.703-5.555-2.998-.351-.676-.382-1.356-.392-2.128-.002-.2-.038-.245-.038-.458-.001-.93-.054-2.544.25-3.226.401-.896 1.696-.94 2.357-.704l.44.237c.224.164.378.426.463.71.21.71.066 3.73.066 4.718h2.933c0-.48.036-.83.036-1.311 0-1.872.18-4.365-1.028-5.713C59.642.097 58.12.001 56.646.001c-.75 0-1.524.137-2.096.331-.609.207-1.09.528-1.45.974-.183.227-.222.34-.34.548-.508.897-.619 2.237-.619 3.318ZM11.874 4.995c0 1.901-.19 4.32.78 5.853 1.306 2.07 4.496 1.524 5.341 2.644.248.327.398 1.02.454 1.535l.04.951c-.001.471.078 1.08.01 1.568-.028.204.008.417-.015.623-.134 1.186-.237 1.974-1.751 2.01-1.297.03-1.842-.661-1.856-1.897-.012-.98-.082-2.073-.001-3.05.014-.17 0-.391 0-.566 0-.213.096-.424-.07-.424h-2.788c0 .412-.071.868-.074 1.097-.018 1.484-.097 3.64.39 4.932.388 1.032.973 1.724 2.048 2.08.543.18 1.22.29 1.92.323h.887c.743-.035 1.46-.16 2.021-.384 2.51-1 2.319-3.949 2.319-6.595 0-1.658-.267-3.575-1.442-4.56-1.723-1.445-4.278-.787-4.868-2.19-.438-1.044-.342-2.588-.342-3.807 0-.172-.013-.354.01-.522.02-.15.011-.355.035-.533.045-.343.105-.588.24-.86.123-.244.287-.436.548-.555.697-.32 1.938-.269 2.443.393.443.58.336 2.142.336 3.032 0 .762-.036 1.4-.036 2.16h2.932c0-2.21.375-5.331-.954-6.954A3.037 3.037 0 0 0 19.04.34C18.495.153 17.824.036 17.121 0h-.916c-.99.05-1.967.268-2.676.684-.284.166-.454.345-.646.564-.727.821-1.01 2.213-1.01 3.747ZM75.707.319v22.035c0 .082.025.106.107.106h2.933v-9.919H82v9.92h3.04V.212h-3.04v9.636h-3.254V.213h-2.933c-.082 0-.107.024-.107.106Z" clip-rule="evenodd"/></g><path fill="#0C0C0C" d="M91.779 31.11a2.129 2.129 0 0 0-.266-.555 1.698 1.698 0 0 0-.913-.692 2.094 2.094 0 0 0-.638-.092 1.93 1.93 0 0 0-1.063.304c-.315.202-.565.498-.75.889-.181.388-.272.864-.272 1.428 0 .565.092 1.043.276 1.434.184.39.436.687.757.89.32.202.684.303 1.093.303.38 0 .71-.078.992-.232.284-.154.503-.373.657-.654.157-.284.236-.618.236-1.002l.272.051h-1.996v-.869h2.742v.794c0 .586-.125 1.095-.374 1.527-.248.429-.591.76-1.03.995-.436.234-.935.35-1.499.35-.631 0-1.185-.145-1.662-.436a2.956 2.956 0 0 1-1.111-1.236c-.266-.537-.399-1.173-.399-1.909 0-.556.077-1.056.232-1.499.154-.443.371-.819.65-1.128.282-.31.613-.548.992-.712a3.104 3.104 0 0 1 1.25-.248c.378 0 .729.055 1.053.166.328.112.618.27.873.474a2.68 2.68 0 0 1 .978 1.66h-1.08ZM85.52 28.906v6.978h-.968l-3.547-5.118h-.064v5.118h-1.053v-6.978h.974l3.55 5.125h.066v-5.125h1.042ZM78.355 28.906v6.978h-1.053v-6.978h1.052ZM70.707 29.812v-.906h5.401v.906h-2.177v6.072h-1.05v-6.072h-2.174ZM66.545 35.884v-6.978h1.052v6.072h3.163v.906h-4.215ZM63.958 28.906h1.056v4.59c0 .488-.115.92-.344 1.298-.23.375-.552.67-.968.886-.416.213-.903.32-1.462.32-.556 0-1.042-.107-1.458-.32a2.406 2.406 0 0 1-.968-.886 2.448 2.448 0 0 1-.344-1.298v-4.59h1.053v4.504c0 .316.07.597.208.842.14.245.34.438.596.58.257.138.561.207.913.207.355 0 .66-.07.917-.208.259-.14.456-.334.593-.579a1.68 1.68 0 0 0 .208-.842v-4.504ZM57.101 30.74a.995.995 0 0 0-.45-.75c-.263-.18-.595-.27-.995-.27-.286 0-.533.046-.742.137a1.142 1.142 0 0 0-.488.367.869.869 0 0 0-.17.529c0 .166.039.309.116.429.08.12.183.222.31.303.13.08.268.147.416.201.147.052.29.096.425.13l.682.177c.223.055.45.128.685.221.234.094.45.216.65.368.2.153.362.341.485.566.125.225.187.494.187.808 0 .395-.102.746-.307 1.052-.202.307-.496.549-.882.726-.384.177-.849.266-1.394.266-.522 0-.974-.083-1.356-.249a2.089 2.089 0 0 1-.896-.705 2.045 2.045 0 0 1-.358-1.09h1.056c.02.252.103.462.246.63.145.166.33.29.555.371.227.08.476.12.746.12.298 0 .563-.047.794-.14a1.33 1.33 0 0 0 .552-.395.937.937 0 0 0 .201-.597.732.732 0 0 0-.177-.507 1.308 1.308 0 0 0-.473-.327 4.633 4.633 0 0 0-.672-.229l-.824-.225c-.56-.152-1.002-.375-1.33-.67-.324-.296-.486-.687-.486-1.173 0-.402.109-.753.327-1.053.218-.3.513-.532.886-.698a3.032 3.032 0 0 1 1.26-.252c.473 0 .89.082 1.25.248.364.166.65.394.86.685.208.289.318.62.327.995H57.1ZM51.76 28.906v6.978h-.968l-3.547-5.118h-.065v5.118h-1.053v-6.978h.974l3.55 5.125h.066v-5.125h1.042ZM44.814 32.395c0 .745-.136 1.386-.409 1.922a3.002 3.002 0 0 1-1.12 1.233c-.473.286-1.01.43-1.612.43a3.073 3.073 0 0 1-1.619-.43 3.004 3.004 0 0 1-1.117-1.237c-.273-.536-.41-1.175-.41-1.918 0-.745.137-1.385.41-1.918a2.982 2.982 0 0 1 1.117-1.234 3.054 3.054 0 0 1 1.619-.432c.602 0 1.139.144 1.611.432.475.287.849.698 1.121 1.234.273.534.41 1.173.41 1.918Zm-1.042 0c0-.568-.092-1.046-.276-1.435-.182-.39-.432-.686-.75-.885a1.948 1.948 0 0 0-1.073-.304c-.402 0-.761.101-1.077.304-.316.2-.566.495-.75.886-.181.388-.272.866-.272 1.434s.09 1.047.272 1.438c.184.388.434.684.75.886.316.2.675.3 1.077.3.4 0 .757-.1 1.073-.3.318-.202.568-.498.75-.886.184-.39.276-.87.276-1.438ZM37.493 31.175H36.43a1.623 1.623 0 0 0-.638-1.039 1.761 1.761 0 0 0-.541-.273 2.113 2.113 0 0 0-.63-.092 1.97 1.97 0 0 0-1.08.304c-.316.202-.566.498-.75.889-.182.39-.273.868-.273 1.431 0 .568.09 1.047.273 1.438.184.39.435.686.753.886.318.2.675.3 1.073.3.22 0 .43-.03.627-.089.2-.061.38-.151.542-.27a1.651 1.651 0 0 0 .644-1.025l1.063.004a2.846 2.846 0 0 1-.33.947c-.162.286-.37.534-.624.743-.253.206-.541.367-.866.48a3.2 3.2 0 0 1-1.063.17 3.056 3.056 0 0 1-1.615-.429 3.005 3.005 0 0 1-1.118-1.237c-.27-.536-.405-1.175-.405-1.918 0-.745.136-1.385.409-1.918a2.982 2.982 0 0 1 1.117-1.234 3.03 3.03 0 0 1 1.612-.432c.37 0 .716.053 1.036.16.322.104.612.259.869.463.257.202.469.45.637.743.168.29.282.623.34.998Z"/><defs><clipPath id="a"><path fill="#fff" d="M0 0h124.378v23.059H0z"/></clipPath></defs></svg>