<svg xmlns="http://www.w3.org/2000/svg" width="49" height="48" fill="none"><rect width="48" height="48" x=".333" fill="#F2F2F7" rx="12"/><path fill="#0F172A" d="M30.803 34.75h-4c-2.42 0-3.75-1.33-3.75-3.75V17c0-2.42 1.33-3.75 3.75-3.75h4c2.42 0 3.75 1.33 3.75 3.75v14c0 2.42-1.34 3.75-3.75 3.75Zm-4-20c-1.58 0-2.25.67-2.25 2.25v14c0 1.58.67 2.25 2.25 2.25h4c1.58 0 2.25-.67 2.25-2.25V17c0-1.58-.67-2.25-2.25-2.25h-4Z"/><mask id="a" fill="#fff"><path d="M28.803 18.75h-5c-.41 0-.75-.34-.75-.75s.34-.75.75-.75h5c.41 0 .75.34.75.75s-.34.75-.75.75Z"/></mask><path fill="#0F172A" d="M28.803 18.75h-5c-.41 0-.75-.34-.75-.75s.34-.75.75-.75h5c.41 0 .75.34.75.75s-.34.75-.75.75Z"/><path fill="#0F172A" d="M28.803 18.75v-1.5h-5v3h5v-1.5Zm-5 0v-1.5c.419 0 .75.332.75.75h-3a2.255 2.255 0 0 0 2.25 2.25v-1.5Zm-.75-.75h1.5c0 .418-.331.75-.75.75v-3a2.255 2.255 0 0 0-2.25 2.25h1.5Zm.75-.75v1.5h5v-3h-5v1.5Zm5 0v1.5a.745.745 0 0 1-.75-.75h3a2.255 2.255 0 0 0-2.25-2.25v1.5Zm.75.75h-1.5c0-.418.332-.75.75-.75v3a2.255 2.255 0 0 0 2.25-2.25h-1.5Z" mask="url(#a)"/><path fill="#0F172A" d="M27.803 30.75h-4c-.41 0-.75-.34-.75-.75s.34-.75.75-.75h4c.41 0 .75.34.75.75s-.34.75-.75.75ZM28.803 26.75c-.01 0-.01 0 0 0l-5.01-.05c-.41 0-.75-.34-.74-.76 0-.41.34-.74.75-.74h.01l5 .05c.41 0 .75.34.74.76-.01.41-.34.74-.75.74ZM26.803 22.75h-3c-.41 0-.75-.34-.75-.75s.34-.75.75-.75h3c.41 0 .75.34.75.75s-.34.75-.75.75ZM17.823 34.72c-.91 0-1.77-.56-2.36-1.54l-.82-1.36c-.3-.5-.53-1.32-.53-1.9V16.95c0-2.04 1.66-3.7 3.7-3.7s3.7 1.66 3.7 3.7v12.96c0 .58-.23 1.4-.53 1.9l-.82 1.36c-.57.99-1.43 1.55-2.34 1.55Zm0-19.97c-1.21 0-2.2.99-2.2 2.2v12.96c0 .31.15.86.31 1.13l.82 1.36c.31.52.7.81 1.07.81.37 0 .76-.3 1.07-.81l.82-1.36c.16-.27.31-.82.31-1.13V16.95c0-1.21-.99-2.2-2.2-2.2Z"/><path fill="#0F172A" d="M20.773 19.75h-5.91c-.41 0-.75-.34-.75-.75s.34-.75.75-.75h5.91c.41 0 .75.34.75.75s-.34.75-.75.75Z"/></svg>