<svg xmlns="http://www.w3.org/2000/svg" width="16" height="16" fill="none"><path fill="#0F172A" d="M8.1 12.9a.504.504 0 0 1-.5-.5V11c0-.273.227-.5.5-.5s.5.227.5.5v1.4c0 .273-.227.5-.5.5Z"/><path fill="#0F172A" d="M11.933 15.167H4.267V14c0-1.013.82-1.833 1.833-1.833h4c1.013 0 1.833.82 1.833 1.833v1.167Zm-6.666-1h5.666V14a.834.834 0 0 0-.833-.833h-4a.834.834 0 0 0-.833.833v.167Z"/><path fill="#0F172A" d="M12.1 15.167h-8a.504.504 0 0 1-.5-.5c0-.274.227-.5.5-.5h8c.273 0 .5.226.5.5 0 .273-.227.5-.5.5ZM12.287 8.293c-.14 0-.28-.06-.38-.173a.493.493 0 0 1-.08-.527c.226-.52.34-1.073.34-1.653v-2c0-.233-.04-.46-.12-.7a1.037 1.037 0 0 1-.02-.073A1.5 1.5 0 0 1 12 2.873c0-.273.227-.5.5-.5h.4c1.193 0 2.167 1 2.167 2.234 0 1.02-.42 2.026-1.147 2.753-.013.013-.053.047-.06.053-.393.327-.84.694-1.44.86a.462.462 0 0 1-.133.02Zm.833-4.9c.033.18.047.367.047.547v2c0 .273-.02.533-.06.8l.113-.093c.533-.534.847-1.28.847-2.04 0-.6-.407-1.107-.947-1.214ZM3.72 8.267a.413.413 0 0 1-.153-.027 3.709 3.709 0 0 1-1.487-.92C1.313 6.473.933 5.547.933 4.567.933 3.353 1.887 2.4 3.1 2.4h.433a.499.499 0 0 1 .46.7 1.97 1.97 0 0 0-.16.8v2c0 .573.114 1.133.347 1.667.08.18.04.386-.087.533a.511.511 0 0 1-.373.167ZM2.867 3.42c-.54.107-.934.573-.934 1.147 0 .726.294 1.426.874 2.066.026.034.06.06.093.087a4.859 4.859 0 0 1-.067-.82v-2c0-.16.014-.32.034-.48Z"/><path fill="#0F172A" d="M8 11.167A5.175 5.175 0 0 1 2.833 6V4A3.17 3.17 0 0 1 6 .833h4A3.17 3.17 0 0 1 13.167 4v2A5.175 5.175 0 0 1 8 11.167ZM6 1.833A2.17 2.17 0 0 0 3.833 4v2c0 2.3 1.867 4.167 4.167 4.167S12.167 8.3 12.167 6V4A2.17 2.17 0 0 0 10 1.833H6Z"/></svg>